<svg xmlns="http://www.w3.org/2000/svg" viewBox="0 0 320 70" preserveAspectRatio="none"><path d="M 10.0 23.3 L 21.5 25.1 L 33.1 24.6 L 44.6 19.7 L 56.2 19.0 L 67.7 21.3 L 79.2 21.5 L 90.8 16.9 L 102.3 20.3 L 113.8 22.0 L 125.4 18.0 L 136.9 15.5 L 148.5 16.3 L 160.0 14.9 L 171.5 20.3 L 183.1 17.8 L 194.6 20.4 L 206.2 20.8 L 217.7 16.3 L 229.2 18.5 L 240.8 18.2 L 252.3 19.6 L 263.8 19.2 L 275.4 24.1 L 286.9 22.5 L 298.5 25.1 L 310.0 22.2 L 310.0 47.0 L 298.5 47.7 L 286.9 48.3 L 275.4 44.5 L 263.8 46.2 L 252.3 49.7 L 240.8 51.1 L 229.2 51.9 L 217.7 52.0 L 206.2 49.3 L 194.6 52.8 L 183.1 51.1 L 171.5 50.5 L 160.0 51.9 L 148.5 51.5 L 136.9 53.0 L 125.4 53.6 L 113.8 54.1 L 102.3 50.0 L 90.8 51.1 L 79.2 51.1 L 67.7 50.5 L 56.2 49.5 L 44.6 45.9 L 33.1 47.6 L 21.5 45.6 L 10.0 44.8 Z" fill="#F8D45A" opacity="0.92"></path><path d="M 10.0 23.3 L 21.5 25.1 L 33.1 24.6 L 44.6 19.7 L 56.2 19.0 L 67.7 21.3 L 79.2 21.5 L 90.8 16.9 L 102.3 20.3 L 113.8 22.0 L 125.4 18.0 L 136.9 15.5 L 148.5 16.3 L 160.0 14.9 L 171.5 20.3 L 183.1 17.8 L 194.6 20.4 L 206.2 20.8 L 217.7 16.3 L 229.2 18.5 L 240.8 18.2 L 252.3 19.6 L 263.8 19.2 L 275.4 24.1 L 286.9 22.5 L 298.5 25.1 L 310.0 22.2 L 310.0 47.0 L 298.5 47.7 L 286.9 48.3 L 275.4 44.5 L 263.8 46.2 L 252.3 49.7 L 240.8 51.1 L 229.2 51.9 L 217.7 52.0 L 206.2 49.3 L 194.6 52.8 L 183.1 51.1 L 171.5 50.5 L 160.0 51.9 L 148.5 51.5 L 136.9 53.0 L 125.4 53.6 L 113.8 54.1 L 102.3 50.0 L 90.8 51.1 L 79.2 51.1 L 67.7 50.5 L 56.2 49.5 L 44.6 45.9 L 33.1 47.6 L 21.5 45.6 L 10.0 44.8 Z" fill="none" stroke="#F3C53C" stroke-width="1.4" opacity="0.5"></path><path d="M 16 28.0 L 27.1 27.8 L 38.2 27.8 L 49.2 27.7 L 60.3 26.7 L 71.4 29.0 L 82.5 27.1 L 93.5 27.1 L 104.6 29.1 L 115.7 26.9 L 126.8 28.4 L 137.8 27.2 L 148.9 29.3 L 160.0 28.2 L 171.1 28.2 L 182.2 26.7 L 193.2 29.0 L 204.3 28.2 L 215.4 26.9 L 226.5 28.7 L 237.5 27.1 L 248.6 28.9 L 259.7 27.8 L 270.8 27.8 L 281.8 27.5 L 292.9 28.8 L 304.0 26.9" fill="none" stroke="#FCEBA0" stroke-width="2" stroke-linecap="round" opacity="0.7"></path><path d="M 16 40.0 L 27.1 38.6 L 38.2 40.9 L 49.2 39.2 L 60.3 38.6 L 71.4 40.5 L 82.5 38.7 L 93.5 40.4 L 104.6 39.2 L 115.7 39.8 L 126.8 40.4 L 137.8 38.6 L 148.9 40.8 L 160.0 41.2 L 171.1 39.4 L 182.2 41.3 L 193.2 40.8 L 204.3 40.6 L 215.4 40.2 L 226.5 40.4 L 237.5 38.7 L 248.6 41.1 L 259.7 41.2 L 270.8 39.2 L 281.8 40.2 L 292.9 40.9 L 304.0 41.3" fill="none" stroke="#FCEBA0" stroke-width="2" stroke-linecap="round" opacity="0.55"></path></svg>