<svg xmlns="http://www.w3.org/2000/svg" viewBox="0 0 300 200" preserveAspectRatio="none" fill="none"><path d="M 23.0 7.0 L 45.6 6.2 L 69.5 5.8 L 92.4 7.8 L 116.8 8.1 L 138.4 5.5 L 162.0 6.3 L 184.1 7.1 L 206.4 8.3 L 229.6 7.2 L 252.5 8.4 L 276.1 8.0 L 281.6 7.5 L 286.1 8.9 L 288.7 14.2 L 293.5 17.2 L 294.4 21.9 L 293.7 22.9 L 292.6 47.3 L 292.1 73.3 L 293.5 99.5 L 293.4 124.4 L 293.4 152.4 L 292.8 178.5 L 292.8 182.3 L 288.5 186.9 L 285.5 191.0 L 283.0 192.0 L 278.1 193.7 L 276.5 192.1 L 253.0 192.3 L 230.7 192.5 L 206.8 193.3 L 185.3 193.4 L 161.5 192.1 L 138.6 192.7 L 115.3 193.0 L 92.6 192.5 L 68.0 192.0 L 46.1 193.2 L 21.9 192.5 L 19.2 192.6 L 13.7 190.9 L 9.8 187.5 L 7.1 182.1 L 8.5 177.3 L 6.3 178.3 L 8.1 151.5 L 5.9 125.7 L 7.4 98.6 L 6.3 74.4 L 7.7 48.6 L 5.6 23.5 L 8.6 18.7 L 10.5 12.2 L 13.4 10.2 L 18.3 8.1 L 23.4 7.1 Z" stroke="#2E4F7E" stroke-width="2" stroke-linejoin="round" stroke-linecap="round"></path><path d="M 23.0 7.0 L 45.4 8.2 L 69.8 6.4 L 93.4 8.5 L 116.2 6.8 L 138.8 6.2 L 162.9 5.6 L 184.6 8.4 L 206.3 6.0 L 232.1 7.6 L 255.2 8.4 L 276.6 6.7 L 282.6 7.9 L 285.0 10.2 L 291.1 13.1 L 291.6 19.4 L 292.1 22.4 L 294.4 21.8 L 293.2 47.9 L 291.9 73.3 L 293.5 99.7 L 294.1 124.4 L 292.2 150.7 L 294.2 176.0 L 293.3 182.5 L 291.0 186.0 L 286.8 191.0 L 283.4 193.3 L 277.0 192.8 L 276.4 191.6 L 253.1 191.8 L 231.4 194.1 L 206.8 194.4 L 185.7 194.2 L 162.0 194.3 L 139.5 193.0 L 114.4 192.0 L 91.2 192.1 L 68.8 192.6 L 47.5 194.4 L 22.8 192.4 L 17.6 192.2 L 15.1 191.4 L 8.6 187.5 L 6.3 180.7 L 6.7 175.9 L 7.5 178.4 L 7.5 151.3 L 5.7 126.7 L 8.4 99.8 L 6.8 74.5 L 6.4 49.1 L 6.5 21.9 L 6.9 19.5 L 10.1 14.3 L 14.5 9.7 L 17.7 6.5 L 22.4 5.9 Z" stroke="#2E4F7E" stroke-width="1.1" stroke-linejoin="round" stroke-linecap="round" opacity="0.5"></path></svg>