<svg xmlns="http://www.w3.org/2000/svg" viewBox="0 0 60 60" width="60" height="60"><circle cx="30" cy="30" r="25" fill="#CFE0F3"></circle><path d="M 56.46 30.00 L 56.36 32.31 L 55.86 34.56 L 54.96 36.69 L 54.29 38.84 L 53.34 40.89 L 52.37 42.92 L 50.89 44.63 L 49.50 46.36 L 48.19 48.19 L 46.75 49.97 L 44.97 51.38 L 43.05 52.61 L 41.00 53.58 L 39.02 54.77 L 36.84 55.51 L 34.55 55.79 L 32.26 55.83 L 30.00 55.80 L 27.73 55.91 L 25.49 55.57 L 23.25 55.20 L 21.02 54.68 L 18.87 53.87 L 17.03 52.46 L 15.30 50.99 L 13.62 49.52 L 11.87 48.13 L 10.31 46.52 L 8.63 44.96 L 7.28 43.12 L 5.99 41.19 L 5.40 38.95 L 4.59 36.81 L 4.36 34.52 L 4.02 32.27 L 4.36 30.00 L 4.37 27.76 L 4.62 25.53 L 4.71 23.22 L 5.48 21.07 L 6.26 18.93 L 7.56 17.04 L 8.73 15.10 L 10.18 13.37 L 11.71 11.71 L 13.34 10.15 L 15.11 8.74 L 16.90 7.31 L 18.95 6.31 L 21.00 5.28 L 23.22 4.70 L 25.47 4.28 L 27.75 4.27 L 30.00 4.40 L 32.25 4.24 L 34.49 4.55 L 36.70 5.01 L 38.75 5.95 L 40.84 6.75 L 42.92 7.62 L 44.76 8.92 L 46.58 10.23 L 48.15 11.85 L 49.86 13.34 L 51.26 15.12 L 52.53 16.99 L 53.71 18.95 L 54.53 21.07 L 55.12 23.27 L 55.54 25.50 L 56.02 27.72 L 56.46 30.00 " fill="none" stroke="#2E4F7E" stroke-width="1.8" stroke-linecap="round" stroke-linejoin="round" opacity="1"></path><path d="M 55.67 30.00 L 55.72 32.25 L 55.46 34.49 L 54.87 36.66 L 54.00 38.73 L 53.29 40.86 L 52.20 42.82 L 51.11 44.78 L 49.73 46.55 L 48.36 48.36 L 46.78 50.00 L 45.01 51.44 L 43.03 52.57 L 40.99 53.57 L 38.85 54.31 L 36.70 55.02 L 34.48 55.41 L 32.25 55.68 L 30.00 55.82 L 27.73 55.90 L 25.49 55.58 L 23.30 55.01 L 21.20 54.18 L 19.00 53.58 L 16.94 52.61 L 15.02 51.39 L 13.35 49.84 L 11.78 48.22 L 10.18 46.63 L 8.90 44.77 L 7.45 43.02 L 6.29 41.06 L 5.24 39.01 L 4.87 36.73 L 4.76 34.45 L 4.33 32.25 L 3.92 30.00 L 3.96 27.72 L 4.47 25.50 L 5.10 23.33 L 5.49 21.08 L 6.18 18.89 L 7.29 16.89 L 8.57 14.99 L 10.03 13.24 L 11.58 11.58 L 13.23 10.01 L 15.05 8.65 L 16.82 7.17 L 18.87 6.13 L 21.01 5.31 L 23.27 4.88 L 25.54 4.72 L 27.76 4.38 L 30.00 3.97 L 32.29 3.83 L 34.57 4.07 L 36.81 4.60 L 39.03 5.19 L 41.16 6.07 L 43.20 7.13 L 45.13 8.39 L 46.76 10.03 L 48.38 11.62 L 49.97 13.24 L 51.46 14.97 L 52.54 16.99 L 53.57 19.01 L 54.70 21.01 L 55.27 23.23 L 55.45 25.51 L 55.42 27.78 L 55.67 30.00 " fill="none" stroke="#2E4F7E" stroke-width="1" stroke-linecap="round" stroke-linejoin="round" opacity="0.45"></path><line x1="6.3" y1="50.0" x2="12.0" y2="44.0" stroke="#2E4F7E" stroke-width="1.1" stroke-linecap="round"></line><line x1="10.2" y1="46.0" x2="16.0" y2="40.0" stroke="#2E4F7E" stroke-width="1.1" stroke-linecap="round"></line><line x1="14.4" y1="42.0" x2="20.0" y2="36.0" stroke="#2E4F7E" stroke-width="1.1" stroke-linecap="round"></line></svg>