<svg xmlns="http://www.w3.org/2000/svg" viewBox="0 0 372 290" width="372" height="290"><path d="M 26.0 10.0 L 53.1 10.2 L 78.7 9.3 L 107.5 8.6 L 132.2 9.3 L 159.0 11.4 L 185.0 11.3 L 213.7 11.6 L 239.0 8.9 L 264.5 10.8 L 292.9 9.5 L 319.0 9.2 L 346.1 10.8 L 351.2 9.0 L 352.8 13.6 L 357.8 15.3 L 360.5 18.1 L 360.1 20.6 L 360.8 25.1 L 362.9 25.3 L 360.9 51.2 L 361.8 77.7 L 363.5 105.8 L 361.9 130.6 L 362.9 158.5 L 360.9 185.5 L 362.9 210.9 L 361.6 239.1 L 363.6 263.0 L 360.5 266.9 L 360.5 270.6 L 357.5 276.0 L 354.2 277.2 L 349.3 278.7 L 346.8 281.1 L 345.6 280.4 L 319.2 279.9 L 291.4 281.2 L 267.1 279.4 L 238.1 280.6 L 213.9 278.7 L 185.9 280.2 L 159.5 281.4 L 131.8 280.0 L 104.7 278.9 L 80.6 281.5 L 52.8 279.6 L 27.1 280.2 L 22.6 279.5 L 19.4 278.5 L 13.4 276.0 L 11.7 270.8 L 10.1 267.1 L 8.6 263.7 L 8.6 262.7 L 10.0 237.5 L 10.9 211.8 L 10.6 184.8 L 9.2 157.1 L 9.7 132.4 L 9.3 106.0 L 10.3 80.4 L 9.7 52.0 L 10.9 26.1 L 10.5 22.3 L 10.9 18.6 L 16.3 13.2 L 18.4 13.4 L 23.0 10.0 L 26.8 8.4 Z" fill="none" stroke="#2E4F7E" stroke-width="2.1" stroke-linejoin="round" stroke-linecap="round"></path><path d="M 26.0 10.0 L 53.9 10.1 L 79.4 10.2 L 106.5 9.4 L 131.8 9.2 L 157.9 9.4 L 187.5 9.1 L 212.4 11.4 L 240.6 11.5 L 265.9 9.0 L 294.0 11.5 L 320.0 11.2 L 347.2 10.9 L 348.6 9.2 L 355.5 11.2 L 358.3 13.6 L 359.1 19.3 L 360.0 21.8 L 361.7 24.5 L 360.8 24.4 L 363.3 52.9 L 362.3 80.4 L 360.7 104.6 L 361.7 131.6 L 361.1 159.4 L 363.2 185.4 L 362.1 212.7 L 360.5 237.1 L 362.3 265.4 L 362.7 268.1 L 361.1 273.1 L 356.4 274.4 L 354.8 278.6 L 350.5 279.1 L 347.5 279.1 L 344.6 280.6 L 320.0 281.2 L 293.4 280.7 L 267.6 280.1 L 240.8 280.9 L 213.1 279.2 L 186.1 280.4 L 160.9 281.4 L 133.4 279.8 L 106.8 280.6 L 80.6 278.9 L 52.5 279.4 L 26.9 280.3 L 21.9 280.7 L 18.1 278.0 L 14.9 274.4 L 12.9 273.5 L 9.6 267.5 L 11.4 265.3 L 10.8 263.6 L 8.7 236.0 L 10.8 209.8 L 11.3 186.3 L 10.7 157.0 L 9.7 132.0 L 8.9 106.8 L 11.2 79.2 L 9.2 51.4 L 9.0 26.7 L 12.0 21.7 L 12.3 18.3 L 15.4 15.9 L 16.9 12.4 L 22.5 11.9 L 27.5 9.1 Z" fill="none" stroke="#2E4F7E" stroke-width="1.4" stroke-linejoin="round" stroke-linecap="round" opacity="0.55"></path><path d="M 28.0 15.0 L 56.1 13.9 L 86.6 15.4 L 114.1 14.8 L 143.7 15.3 L 172.7 15.5 L 199.3 15.2 L 229.2 14.5 L 256.8 14.4 L 285.4 14.9 L 315.9 14.0 L 344.1 15.9 L 346.1 14.4 L 349.3 15.5 L 354.4 18.7 L 355.8 21.9 L 355.4 24.4 L 356.9 28.3 L 356.9 27.2 L 357.5 57.3 L 357.5 87.0 L 357.0 116.3 L 357.6 146.0 L 356.3 173.6 L 356.2 203.4 L 357.9 232.6 L 357.7 262.8 L 356.2 265.9 L 355.1 268.8 L 352.8 272.4 L 349.9 273.1 L 346.5 274.2 L 344.3 275.3 L 344.1 275.8 L 315.4 275.7 L 286.5 274.1 L 257.6 273.7 L 228.0 273.7 L 201.6 274.2 L 170.6 274.7 L 142.3 275.5 L 114.3 274.0 L 85.2 274.1 L 57.3 275.9 L 27.0 274.0 L 24.2 273.7 L 21.2 273.5 L 19.7 271.0 L 16.6 268.5 L 15.7 265.8 L 15.3 260.9 L 14.8 263.1 L 15.1 232.6 L 16.2 203.5 L 14.2 173.7 L 16.1 146.1 L 14.0 116.5 L 14.9 85.8 L 15.6 56.7 L 16.3 29.1 L 15.8 23.8 L 16.3 20.3 L 17.7 18.6 L 21.2 16.8 L 24.7 15.0 L 29.1 15.9 Z" fill="none" stroke="#2E4F7E" stroke-width="1.2" stroke-linejoin="round" stroke-linecap="round" opacity="0.8"></path><line x1="25.9" y1="19.3" x2="36.1" y2="29.1" stroke="#2E4F7E" stroke-width="1.2" stroke-linecap="round"></line><line x1="23.5" y1="22.6" x2="30.7" y2="31.7" stroke="#2E4F7E" stroke-width="1.2" stroke-linecap="round"></line><line x1="19.8" y1="26.4" x2="26.9" y2="33.2" stroke="#2E4F7E" stroke-width="1.2" stroke-linecap="round"></line><line x1="352.0" y1="26.2" x2="343.3" y2="36.1" stroke="#2E4F7E" stroke-width="1.2" stroke-linecap="round"></line><line x1="349.0" y1="23.3" x2="340.6" y2="30.9" stroke="#2E4F7E" stroke-width="1.2" stroke-linecap="round"></line><line x1="345.3" y1="19.7" x2="337.9" y2="26.9" stroke="#2E4F7E" stroke-width="1.2" stroke-linecap="round"></line><line x1="345.4" y1="271.1" x2="336.0" y2="260.8" stroke="#2E4F7E" stroke-width="1.2" stroke-linecap="round"></line><line x1="348.7" y1="267.1" x2="341.1" y2="258.9" stroke="#2E4F7E" stroke-width="1.2" stroke-linecap="round"></line><line x1="353.0" y1="262.9" x2="344.9" y2="256.2" stroke="#2E4F7E" stroke-width="1.2" stroke-linecap="round"></line><line x1="19.7" y1="263.5" x2="28.6" y2="254.3" stroke="#2E4F7E" stroke-width="1.2" stroke-linecap="round"></line><line x1="23.2" y1="267.5" x2="30.9" y2="259.4" stroke="#2E4F7E" stroke-width="1.2" stroke-linecap="round"></line><line x1="26.3" y1="270.6" x2="34.0" y2="262.9" stroke="#2E4F7E" stroke-width="1.2" stroke-linecap="round"></line></svg>