<svg xmlns="http://www.w3.org/2000/svg" viewBox="0 0 320 70" preserveAspectRatio="none"><path d="M 10.0 27.9 L 21.5 27.0 L 33.1 22.3 L 44.6 24.4 L 56.2 22.0 L 67.7 19.2 L 79.2 18.5 L 90.8 21.7 L 102.3 18.2 L 113.8 15.8 L 125.4 18.9 L 136.9 18.8 L 148.5 17.4 L 160.0 19.9 L 171.5 20.9 L 183.1 16.2 L 194.6 20.7 L 206.2 21.1 L 217.7 17.2 L 229.2 21.4 L 240.8 18.2 L 252.3 22.5 L 263.8 24.9 L 275.4 21.7 L 286.9 20.6 L 298.5 26.5 L 310.0 25.0 L 310.0 42.7 L 298.5 46.7 L 286.9 44.9 L 275.4 46.3 L 263.8 46.2 L 252.3 50.8 L 240.8 48.8 L 229.2 50.1 L 217.7 50.7 L 206.2 52.0 L 194.6 48.4 L 183.1 54.1 L 171.5 54.8 L 160.0 52.2 L 148.5 53.1 L 136.9 53.2 L 125.4 52.6 L 113.8 50.5 L 102.3 52.8 L 90.8 48.0 L 79.2 49.7 L 67.7 51.3 L 56.2 46.3 L 44.6 49.6 L 33.1 45.7 L 21.5 44.3 L 10.0 42.1 Z" fill="#86B6E8" opacity="0.85"></path><path d="M 10.0 27.9 L 21.5 27.0 L 33.1 22.3 L 44.6 24.4 L 56.2 22.0 L 67.7 19.2 L 79.2 18.5 L 90.8 21.7 L 102.3 18.2 L 113.8 15.8 L 125.4 18.9 L 136.9 18.8 L 148.5 17.4 L 160.0 19.9 L 171.5 20.9 L 183.1 16.2 L 194.6 20.7 L 206.2 21.1 L 217.7 17.2 L 229.2 21.4 L 240.8 18.2 L 252.3 22.5 L 263.8 24.9 L 275.4 21.7 L 286.9 20.6 L 298.5 26.5 L 310.0 25.0 L 310.0 42.7 L 298.5 46.7 L 286.9 44.9 L 275.4 46.3 L 263.8 46.2 L 252.3 50.8 L 240.8 48.8 L 229.2 50.1 L 217.7 50.7 L 206.2 52.0 L 194.6 48.4 L 183.1 54.1 L 171.5 54.8 L 160.0 52.2 L 148.5 53.1 L 136.9 53.2 L 125.4 52.6 L 113.8 50.5 L 102.3 52.8 L 90.8 48.0 L 79.2 49.7 L 67.7 51.3 L 56.2 46.3 L 44.6 49.6 L 33.1 45.7 L 21.5 44.3 L 10.0 42.1 Z" fill="none" stroke="#6BA3DF" stroke-width="1.4" opacity="0.5"></path><path d="M 16 28.0 L 27.1 28.3 L 38.2 28.0 L 49.2 29.2 L 60.3 27.4 L 71.4 28.6 L 82.5 29.2 L 93.5 27.6 L 104.6 26.8 L 115.7 28.4 L 126.8 28.4 L 137.8 28.1 L 148.9 27.1 L 160.0 28.4 L 171.1 26.7 L 182.2 26.9 L 193.2 27.6 L 204.3 29.3 L 215.4 28.8 L 226.5 26.8 L 237.5 28.7 L 248.6 28.0 L 259.7 28.7 L 270.8 27.2 L 281.8 27.0 L 292.9 26.9 L 304.0 27.1" fill="none" stroke="#AFD0F2" stroke-width="2" stroke-linecap="round" opacity="0.6"></path><path d="M 16 40.0 L 27.1 40.1 L 38.2 40.0 L 49.2 39.2 L 60.3 39.9 L 71.4 41.2 L 82.5 40.7 L 93.5 41.0 L 104.6 38.6 L 115.7 40.1 L 126.8 40.1 L 137.8 38.9 L 148.9 40.2 L 160.0 39.5 L 171.1 39.3 L 182.2 41.0 L 193.2 39.4 L 204.3 40.2 L 215.4 40.4 L 226.5 40.5 L 237.5 40.2 L 248.6 39.2 L 259.7 40.1 L 270.8 41.4 L 281.8 40.6 L 292.9 40.2 L 304.0 38.6" fill="none" stroke="#AFD0F2" stroke-width="2" stroke-linecap="round" opacity="0.5"></path></svg>